<svg xmlns="http://www.w3.org/2000/svg" data-name="Layer 1" viewBox="0 0 32 32" id="telephone"><path fill="#f4f1e9" d="M28.942,19.828l-1.593-1.595a4.014,4.014,0,0,0-5.623-.034l-1.454,1.418a8.276,8.276,0,0,1-6.888-6.891L14.8,11.272a4.015,4.015,0,0,0-.034-5.622l-1.6-1.594a4,4,0,0,0-6.164.622L5.43,7.066a7.943,7.943,0,0,0-.621,7.709A26.876,26.876,0,0,0,18.22,28.191a7.942,7.942,0,0,0,7.715-.62l2.386-1.58a4,4,0,0,0,.621-6.163Z"></path><path fill="#141412" d="M21.52,28.91a7.954,7.954,0,0,1-3.3-.718A26.884,26.884,0,0,1,4.809,14.776a7.947,7.947,0,0,1,.621-7.71L7.01,4.677a4,4,0,0,1,6.164-.621L14.768,5.65a4.014,4.014,0,0,1,.034,5.622h0l-1.418,1.453a8.275,8.275,0,0,0,6.889,6.892L21.726,18.2a4.013,4.013,0,0,1,5.623.033l1.593,1.595a4,4,0,0,1-.62,6.163l-2.387,1.58A7.982,7.982,0,0,1,21.52,28.91ZM10.348,4.884a2.017,2.017,0,0,0-1.67.9L7.1,8.17a5.957,5.957,0,0,0-.468,5.78A24.886,24.886,0,0,0,19.047,26.371a5.954,5.954,0,0,0,5.784-.468l2.387-1.58a2,2,0,0,0,.31-3.081l-1.593-1.6a2.007,2.007,0,0,0-2.812-.017l-1.8,1.759a1.01,1.01,0,0,1-.8.279,10.29,10.29,0,0,1-9.188-9.191,1,1,0,0,1,.279-.8l1.759-1.8h0a2.007,2.007,0,0,0-.017-2.811L11.76,5.47A1.992,1.992,0,0,0,10.348,4.884Z"></path></svg>